/* XPM */
static char *ATSProjectFrm_WxToolButton1_XPM[]={
/* ATSProjectFrm_WxToolButton1 */
"17 16 47 1",
"      c None",
"0     c #7195FF",
"1     c #6F94FF",
"2     c #6B91FF",
"3     c #FFFFFF",
"4     c #678EFF",
"5     c #C7D5FF",
"6     c #6189FF",
"7     c #5D86FF",
"8     c #5B85FF",
"9     c #5983FF",
"a     c #5580FF",
"b     c #537FFF",
"c     c #C3D2FF",
"d     c #BFCFFF",
"e     c #517DFF",
"f     c #8AA5F4",
"g     c #BBCCFF",
"h     c #B9CBFF",
"i     c #698FFF",
"j     c #658CFF",
"k     c #5F88FF",
"l     c #5782FF",
"m     c #DEE6FC",
"n     c #B5C8FF",
"o     c #4574FF",
"p     c #AFC3FF",
"q     c #A3BAFF",
"r     c #4171FF",
"s     c #6B8DF2",
"t     c #A9BFFF",
"u     c #99B3FF",
"v     c #3F70FF",
"w     c #6A8CF2",
"x     c #8FACFF",
"y     c #3D6EFF",
"z     c #638BFF",
"A     c #83A3FF",
"B     c #3B6DFF",
"C     c #799BFF",
"D     c #396BFF",
"E     c #4D7AFF",
"F     c #4977FF",
"G     c #4776FF",
"H     c #4A74ED",
"I     c #819EF4",
"J     c #C7D4F9",
"                 ",
"  0012           ",
" 033334          ",
"03555536789ab    ",
"0cddddd33333ef   ",
"1ghiiiiiijk8laam ",
"2ni333333333h3of ",
"ip0555555555q5rs ",
"4t05ccccccccu5vw ",
"jti5ggggggggx5yw ",
"6tz5nnnnnnnnA5Bw ",
"7t85ppppppppC5Ds ",
"m9abeEFGorvyBDHI ",
" JIwwwwwwwwwwwIJ ",
"                 ",
"                 "};

static char *ATSProjectFrm_WxToolButton2_XPM[]={
"16 12 101 2",
"      c None",
" 0    c #D6D6D6",
" 1    c #8CB886",
" 2    c #A2D2A3",
" 3    c #91CA8E",
" 4    c #80BB7F",
" 5    c #86C488",
" 6    c #7BB97D",
" 7    c #92CA90",
" 8    c #A0D99D",
" 9    c #8DC98B",
" a    c #72A270",
" b    c #85BD83",
" c    c #56A65C",
" d    c #8CC589",
" e    c #93CC90",
" f    c #A4DAA0",
" g    c #91CB8F",
" h    c #6BAB6B",
" i    c #58A860",
" j    c #4DA159",
" k    c #3F9752",
" l    c #34884C",
" m    c #80BA81",
" n    c #7FB87E",
" o    c #65A966",
" p    c #41954F",
" q    c #93C791",
" r    c #88C185",
" s    c #7BB47A",
" t    c #8DC389",
" u    c #8BC48A",
" v    c #83BD83",
" w    c #7DB77F",
" x    c #76B07B",
" y    c #6CAC75",
" z    c #77B37C",
" A    c #58A65F",
" B    c #79B379",
" C    c #51A35B",
" D    c #469451",
" E    c #75BD77",
" F    c #88C387",
" G    c #6DAB6D",
" H    c #459955",
" I    c #35894D",
" J    c #3B9151",
" K    c #4B9D59",
" L    c #51A15C",
" M    c #54A45D",
" N    c #55A55D",
" O    c #52A45C",
" P    c #5AA862",
" Q    c #79B377",
" R    c #77B177",
" S    c #65AB68",
" T    c #468C51",
" U    c #7BB77C",
" V    c #72AC70",
" W    c #4D9F59",
" X    c #378F50",
" Y    c #429654",
" Z    c #50A05B",
" &    c #56A65F",
"0     c #5AA65F",
"00    c #5FA762",
"01    c #65A968",
"02    c #69AB6B",
"03    c #7CB379",
"04    c #94CB91",
"05    c #7BB77D",
"06    c #82B47E",
"07    c #6CAC6C",
"08    c #4A9C57",
"09    c #6BAB6C",
"0a    c #70AC70",
"0b    c #85BE84",
"0c    c #9BD698",
"0d    c #6CA66E",
"0e    c #5FA963",
"0f    c #4FA15A",
"0g    c #379151",
"0h    c #3E9653",
"0i    c #4FA15C",
"0j    c #56A85E",
"0k    c #76B175",
"0l    c #7FB67C",
"0m    c #83BC82",
"0n    c #93CE90",
"0o    c #65A568",
"0p    c #75A773",
"0q    c #529A59",
"0r    c #529858",
"0s    c #549A5A",
"0t    c #498F51",
"0u    c #6EAA6E",
"0v    c #8BC789",
"0w    c #61A565",
"0x    c #4A9655",
"0y    c #5DA562",
"0z    c #347E46",
"   0 0 0 0 0 0 0 0 0 1 2 0 0 0 0",
" 3 4 0 0 0 0 0 0 0 0 5 6 2 0 0 0",
" 7 8 9 2 2 2 2 2 2 a 8 b c 2 0 0",
" d e f g 4 h i j k l m n o p 2 0",
" q r s d t u v w x y z A B C D 2",
" E F G H I J K L M N O P Q R S T",
" 0 U V W X Y Z &0 000102030405 2",
" 0060708 X Y Z A01090a030b0c0d 0",
" 0 00e0f0g0h0i0j090k0l0m0n0o 0 0",
" 0 0 0 E0p0q0r0r0s0t0u0v0w 0 0 0",
" 0 0 0 0 0 0 0 0 0 00x0y 0 0 0 0",
" 0 0 0 0 0 0 0 0 0 00z 0 0 0 0 0"};
