/* XPM */
static char *CecoFrm_WxToolButton1_XPM[]={
/* CecoFrm_WxToolButton1 */
"16 12 62 1",
"      c None",
"0     c #C0C0C0",
"1     c #A4A4A4",
"2     c #BFBFBF",
"3     c #B2B2B2",
"4     c #A3A3A3",
"5     c #ABABAB",
"6     c #A0A0A0",
"7     c #C1C1C1",
"8     c #B0B0B0",
"9     c #8E8E8E",
"a     c #A5A5A5",
"b     c #878787",
"c     c #ADADAD",
"d     c #B4B4B4",
"e     c #C3C3C3",
"f     c #B3B3B3",
"g     c #919191",
"h     c #8A8A8A",
"i     c #828282",
"j     c #797979",
"k     c #6D6D6D",
"l     c #8D8D8D",
"m     c #777777",
"n     c #B1B1B1",
"o     c #A9A9A9",
"p     c #9C9C9C",
"q     c #ACACAC",
"r     c #9A9A9A",
"s     c #949494",
"t     c #888888",
"u     c #9B9B9B",
"v     c #848484",
"w     c #929292",
"x     c #7B7B7B",
"y     c #6E6E6E",
"z     c #747474",
"A     c #808080",
"B     c #868686",
"C     c #858585",
"D     c #999999",
"E     c #8F8F8F",
"F     c #737373",
"G     c #9F9F9F",
"H     c #818181",
"I     c #727272",
"J     c #9E9E9E",
"K     c #7E7E7E",
"L     c #939393",
"M     c #A6A6A6",
"N     c #BDBDBD",
"O     c #8C8C8C",
"P     c #838383",
"Q     c #787878",
"R     c #898989",
"S     c #B5B5B5",
"T     c #7F7F7F",
"U     c #7D7D7D",
"V     c #757575",
"W     c #AEAEAE",
"X     c #7A7A7A",
"Y     c #656565",
" 000000000120000",
"3400000000562000",
"37822222297ab200",
"cdef4ghijk46lm20",
"nopcqqa6rsptuvm2",
"65wxyzAvBbChuDEF",
"6GsHIjitth9gpdG2",
"0JwKIjit9gLpMNE0",
"00OPzQPRgDG1SO00",
"0006wTUUTVgWh000",
"0000000000XR0000",
"0000000000Y00000"};

